<svg xmlns="http://www.w3.org/2000/svg" viewBox="0 0 720 220" role="img" aria-labelledby="title desc">
  <title id="title">حضانتي — Hadanati</title>
  <desc id="desc">Hadanati wordmark with the nursery shelter app icon.</desc>
  <defs>
    <linearGradient id="bg" x1="35" y1="20" x2="190" y2="200" gradientUnits="userSpaceOnUse">
      <stop stop-color="#4f8768"/>
      <stop offset="1" stop-color="#2f5842"/>
    </linearGradient>
  </defs>
  <rect x="32" y="24" width="172" height="172" rx="42" fill="url(#bg)"/>
  <path d="M71 113c0-36 27-65 47-65s47 29 47 65v30c0 13-10 23-23 23H94c-13 0-23-10-23-23v-30Z" fill="#faf8f3"/>
  <path d="M91 112c0-24 18-43 27-43s27 19 27 43v28c0 6-5 11-11 11h-32c-6 0-11-5-11-11v-28Z" fill="#3d6b4f"/>
  <circle cx="118" cy="97" r="16" fill="#f0b35f"/>
  <path d="M118 123c21 9 28 28 16 40-7 7-25 8-32 0-12-12-5-31 16-40Z" fill="#faf8f3"/>
  <path d="M118 128v31" stroke="#3d6b4f" stroke-width="5" stroke-linecap="round"/>
  <text x="686" y="105" direction="rtl" text-anchor="end" fill="#2f5842" font-family="IBM Plex Sans Arabic, Arial, sans-serif" font-size="66" font-weight="700">حضانتي</text>
  <text x="686" y="153" text-anchor="end" fill="#6b786f" font-family="IBM Plex Sans Arabic, Arial, sans-serif" font-size="30" font-weight="500">Hadanati · Nursery operations for Jordan</text>
</svg>
